<svg width="21" height="20" viewBox="0 0 21 20" fill="none" xmlns="http://www.w3.org/2000/svg">
<path d="M10.5 0.25C8.57164 0.25 6.68657 0.821828 5.08319 1.89317C3.47982 2.96451 2.23013 4.48726 1.49218 6.26884C0.754225 8.05042 0.561142 10.0108 0.937348 11.9021C1.31355 13.7934 2.24215 15.5307 3.60571 16.8943C4.96928 18.2579 6.70656 19.1865 8.59787 19.5627C10.4892 19.9389 12.4496 19.7458 14.2312 19.0078C16.0127 18.2699 17.5355 17.0202 18.6068 15.4168C19.6782 13.8134 20.25 11.9284 20.25 10C20.2473 7.41498 19.2192 4.93661 17.3913 3.10872C15.5634 1.28084 13.085 0.25273 10.5 0.25ZM10.5 18.25C8.86831 18.25 7.27326 17.7661 5.91655 16.8596C4.55984 15.9531 3.50242 14.6646 2.878 13.1571C2.25358 11.6496 2.0902 9.99085 2.40853 8.3905C2.72685 6.79016 3.51259 5.32015 4.66637 4.16637C5.82016 3.01259 7.29017 2.22685 8.89051 1.90852C10.4909 1.59019 12.1497 1.75357 13.6571 2.37799C15.1646 3.00242 16.4531 4.05984 17.3596 5.41655C18.2661 6.77325 18.75 8.3683 18.75 10C18.7475 12.1873 17.8775 14.2843 16.3309 15.8309C14.7843 17.3775 12.6873 18.2475 10.5 18.25ZM6 8.125C6 7.9025 6.06598 7.68499 6.1896 7.49998C6.31322 7.31498 6.48892 7.17078 6.69449 7.08564C6.90005 7.00049 7.12625 6.97821 7.34448 7.02162C7.56271 7.06502 7.76317 7.17217 7.9205 7.3295C8.07783 7.48684 8.18498 7.68729 8.22839 7.90552C8.2718 8.12375 8.24952 8.34995 8.16437 8.55552C8.07922 8.76109 7.93503 8.93679 7.75002 9.0604C7.56502 9.18402 7.34751 9.25 7.125 9.25C6.82664 9.25 6.54049 9.13147 6.32951 8.9205C6.11853 8.70952 6 8.42337 6 8.125ZM15 8.125C15 8.3475 14.934 8.56501 14.8104 8.75002C14.6868 8.93502 14.5111 9.07922 14.3055 9.16436C14.1 9.24951 13.8738 9.27179 13.6555 9.22838C13.4373 9.18498 13.2368 9.07783 13.0795 8.9205C12.9222 8.76316 12.815 8.56271 12.7716 8.34448C12.7282 8.12625 12.7505 7.90005 12.8356 7.69448C12.9208 7.48891 13.065 7.31321 13.25 7.1896C13.435 7.06598 13.6525 7 13.875 7C14.1734 7 14.4595 7.11853 14.6705 7.3295C14.8815 7.54048 15 7.82663 15 8.125ZM14.8997 12.625C13.935 14.2928 12.3309 15.25 10.5 15.25C8.66907 15.25 7.06594 14.2937 6.10125 12.625C6.04699 12.5396 6.01055 12.4442 5.99413 12.3444C5.97772 12.2446 5.98166 12.1425 6.00573 12.0442C6.02979 11.946 6.07348 11.8536 6.13417 11.7727C6.19485 11.6917 6.27128 11.6239 6.35886 11.5733C6.44643 11.5227 6.54334 11.4903 6.64375 11.4781C6.74417 11.4659 6.84601 11.4742 6.94316 11.5023C7.0403 11.5305 7.13074 11.5781 7.20904 11.6421C7.28734 11.7062 7.35187 11.7854 7.39875 11.875C8.09907 13.0853 9.19969 13.75 10.5 13.75C11.8003 13.75 12.9009 13.0844 13.6003 11.875C13.6998 11.7027 13.8636 11.577 14.0558 11.5254C14.2479 11.4739 14.4527 11.5009 14.625 11.6003C14.7973 11.6998 14.9231 11.8636 14.9746 12.0558C15.0261 12.2479 14.9991 12.4527 14.8997 12.625Z" fill="#438E96"/>
</svg>
