<svg width="32" height="32" viewBox="0 0 32 32" fill="none" xmlns="http://www.w3.org/2000/svg">
<path d="M5 29L3 27L19 11L21 13L5 29Z" fill="#433B6B"/>
<path d="M18 12L20 14L21.674 12.333C22.109 11.888 22.109 11.093 21.674 10.658L21.344 10.327C20.9 9.89002 20 10 19.5 10.5L18 12ZM2.33802 29.252L2.74802 29.662C3.18802 30.114 3.91802 30.114 4.35802 29.652L6.00002 28.007L4.00002 26L2.33702 27.627C2.22996 27.7335 2.145 27.8601 2.08703 27.9996C2.02905 28.139 1.99921 28.2885 1.99921 28.4395C1.99921 28.5905 2.02905 28.74 2.08703 28.8795C2.145 29.0189 2.22996 29.1455 2.33702 29.252H2.33802Z" fill="#F4F4F4"/>
<path d="M27.87 4.423C28.001 4.707 28.222 4.931 28.514 5.058L29.729 5.585C29.8097 5.62031 29.8783 5.67837 29.9265 5.75207C29.9747 5.82578 30.0004 5.91193 30.0004 6C30.0004 6.08807 29.9747 6.17422 29.9265 6.24793C29.8783 6.32163 29.8097 6.37969 29.729 6.415L28.524 6.942C28.2363 7.06355 28.0061 7.29083 27.881 7.577L26.927 9.744C26.757 10.085 26.244 10.085 26.073 9.744L25.119 7.577C24.9909 7.29289 24.7617 7.06656 24.476 6.942L23.271 6.415C23.1903 6.37969 23.1217 6.32163 23.0735 6.24793C23.0253 6.17422 22.9996 6.08807 22.9996 6C22.9996 5.91193 23.0253 5.82578 23.0735 5.75207C23.1217 5.67837 23.1903 5.62031 23.271 5.585L24.476 5.058C24.7637 4.93645 24.9939 4.70917 25.119 4.423L26.073 2.256C26.243 1.915 26.756 1.915 26.927 2.256L27.87 4.423ZM16.441 5.603C16.2394 5.51862 16.0763 5.36259 15.983 5.165L15.307 3.675C15.182 3.442 14.817 3.442 14.693 3.675L14.017 5.165C13.9267 5.3647 13.7625 5.52168 13.559 5.603L12.695 5.963C12.6376 5.9859 12.5884 6.02549 12.5537 6.07665C12.519 6.12781 12.5005 6.1882 12.5005 6.25C12.5005 6.3118 12.519 6.37219 12.5537 6.42335C12.5884 6.47451 12.6376 6.5141 12.695 6.537L13.559 6.897C13.7605 6.98146 13.9236 7.13747 14.017 7.335L14.693 8.825C14.818 9.058 15.183 9.058 15.307 8.825L15.983 7.335C16.0733 7.1353 16.2375 6.97832 16.441 6.897L17.305 6.537C17.3624 6.5141 17.4116 6.47451 17.4463 6.42335C17.481 6.37219 17.4995 6.3118 17.4995 6.25C17.4995 6.1882 17.481 6.12781 17.4463 6.07665C17.4116 6.02549 17.3624 5.9859 17.305 5.963L16.441 5.603ZM25.951 16.298C25.7448 16.1988 25.5814 16.0283 25.491 15.818L24.805 14.196C24.677 13.935 24.313 13.935 24.195 14.196L23.51 15.819C23.4195 16.029 23.2561 16.1991 23.05 16.298L22.193 16.69C21.936 16.82 21.936 17.19 22.193 17.31L23.049 17.702C23.2552 17.8012 23.4186 17.9717 23.509 18.182L24.195 19.804C24.323 20.065 24.687 20.065 24.805 19.804L25.49 18.182C25.5803 17.9717 25.7437 17.8012 25.95 17.702L26.807 17.31C27.064 17.18 27.064 16.81 26.807 16.69L25.951 16.298ZM12 14C12.2652 14 12.5196 13.8946 12.7071 13.7071C12.8946 13.5196 13 13.2652 13 13C13 12.7348 12.8946 12.4804 12.7071 12.2929C12.5196 12.1054 12.2652 12 12 12C11.7348 12 11.4804 12.1054 11.2929 12.2929C11.1054 12.4804 11 12.7348 11 13C11 13.2652 11.1054 13.5196 11.2929 13.7071C11.4804 13.8946 11.7348 14 12 14ZM30 13C30 13.2652 29.8946 13.5196 29.7071 13.7071C29.5196 13.8946 29.2652 14 29 14C28.7348 14 28.4804 13.8946 28.2929 13.7071C28.1054 13.5196 28 13.2652 28 13C28 12.7348 28.1054 12.4804 28.2929 12.2929C28.4804 12.1054 28.7348 12 29 12C29.2652 12 29.5196 12.1054 29.7071 12.2929C29.8946 12.4804 30 12.7348 30 13ZM19 4C19.2652 4 19.5196 3.89464 19.7071 3.70711C19.8946 3.51957 20 3.26522 20 3C20 2.73478 19.8946 2.48043 19.7071 2.29289C19.5196 2.10536 19.2652 2 19 2C18.7348 2 18.4804 2.10536 18.2929 2.29289C18.1054 2.48043 18 2.73478 18 3C18 3.26522 18.1054 3.51957 18.2929 3.70711C18.4804 3.89464 18.7348 4 19 4ZM20 21C20 21.2652 19.8946 21.5196 19.7071 21.7071C19.5196 21.8946 19.2652 22 19 22C18.7348 22 18.4804 21.8946 18.2929 21.7071C18.1054 21.5196 18 21.2652 18 21C18 20.7348 18.1054 20.4804 18.2929 20.2929C18.4804 20.1054 18.7348 20 19 20C19.2652 20 19.5196 20.1054 19.7071 20.2929C19.8946 20.4804 20 20.7348 20 21Z" fill="#F9C23C"/>
</svg>
