<svg width="21" height="20" viewBox="0 0 21 20" fill="none" xmlns="http://www.w3.org/2000/svg">
<path fill-rule="evenodd" clip-rule="evenodd" d="M3.16667 0.466667H17.8333C18.4168 0.466667 18.9764 0.698452 19.389 1.11103C19.8016 1.52361 20.0333 2.08319 20.0333 2.66667V17.3333C20.0333 17.9168 19.8016 18.4764 19.389 18.889C18.9764 19.3015 18.4168 19.5333 17.8333 19.5333H3.16667C2.5832 19.5333 2.02362 19.3015 1.61104 18.889C1.19846 18.4764 0.966675 17.9168 0.966675 17.3333V2.66667C0.966675 2.08319 1.19846 1.52361 1.61104 1.11103C2.02362 0.698452 2.5832 0.466667 3.16667 0.466667ZM3.16667 1.93333C2.97218 1.93333 2.78566 2.0106 2.64813 2.14812C2.5106 2.28565 2.43334 2.47218 2.43334 2.66667V11.2672L4.90027 8.80027C4.9628 8.73756 5.0373 8.68807 5.11935 8.65476C5.2014 8.62144 5.28931 8.60498 5.37785 8.60635C5.46639 8.60772 5.55376 8.62689 5.63473 8.66272C5.71571 8.69856 5.78865 8.75032 5.84921 8.81493L11.0485 14.3853L15.1669 10.2669C15.2907 10.1433 15.4584 10.0739 15.6333 10.0739C15.8082 10.0739 15.976 10.1433 16.0997 10.2669L18.5667 12.7339V2.66667C18.5667 2.47218 18.4894 2.28565 18.3519 2.14812C18.2144 2.0106 18.0278 1.93333 17.8333 1.93333H3.16667ZM2.43334 17.3333V13.1328L5.35054 10.2171L10.5455 15.7816L12.6135 18.0667H3.16667C2.97218 18.0667 2.78566 17.9894 2.64813 17.8519C2.5106 17.7144 2.43334 17.5278 2.43334 17.3333ZM17.8333 18.0667H14.394L11.9417 15.3577L15.6333 11.6661L18.5667 14.5995V17.3333C18.5667 17.5278 18.4894 17.7144 18.3519 17.8519C18.2144 17.9894 18.0278 18.0667 17.8333 18.0667ZM9.25334 7.06667C9.25334 6.73603 9.38469 6.41894 9.61848 6.18514C9.85228 5.95135 10.1694 5.82 10.5 5.82C10.8306 5.82 11.1477 5.95135 11.3815 6.18514C11.6153 6.41894 11.7467 6.73603 11.7467 7.06667C11.7467 7.3973 11.6153 7.7144 11.3815 7.94819C11.1477 8.18199 10.8306 8.31333 10.5 8.31333C10.1694 8.31333 9.85228 8.18199 9.61848 7.94819C9.38469 7.7144 9.25334 7.3973 9.25334 7.06667ZM10.5 4.5C10.1629 4.5 9.82919 4.56639 9.51779 4.69538C9.20639 4.82436 8.92344 5.01342 8.6851 5.25176C8.44676 5.4901 8.2577 5.77304 8.12872 6.08445C7.99973 6.39585 7.93334 6.72961 7.93334 7.06667C7.93334 7.40373 7.99973 7.73749 8.12872 8.04889C8.2577 8.36029 8.44676 8.64324 8.6851 8.88157C8.92344 9.11991 9.20639 9.30897 9.51779 9.43796C9.82919 9.56695 10.1629 9.63333 10.5 9.63333C11.1807 9.63333 11.8336 9.36292 12.3149 8.88157C12.7963 8.40023 13.0667 7.74739 13.0667 7.06667C13.0667 6.38594 12.7963 5.7331 12.3149 5.25176C11.8336 4.77042 11.1807 4.5 10.5 4.5Z" fill="#438E96"/>
</svg>
